<svg width="443" height="452" viewBox="0 0 443 452" fill="none" xmlns="http://www.w3.org/2000/svg">
<path d="M354.131 5.76185L418.73 17.3543C421.686 17.8859 423.836 20.4662 423.831 23.4727L423.624 119.79C423.614 123.647 420.134 126.561 416.345 125.884L351.901 114.369C348.945 113.84 346.794 111.265 346.794 108.258L346.847 11.8652C346.85 8.00361 350.336 5.0823 354.131 5.76185Z" fill="#F8BD7F"/>
<path d="M423.644 110.658C423.186 110.658 422.818 110.287 422.818 109.828L423.003 23.473C423.011 20.8601 421.151 18.6309 418.585 18.1695L353.986 6.57957C352.419 6.29872 350.817 6.7225 349.598 7.74558C348.376 8.76867 347.676 10.2707 347.673 11.8655L347.651 52.6133C347.651 53.0721 347.28 53.4433 346.825 53.4433C346.366 53.4433 345.999 53.0696 345.999 52.6133L346.019 11.8655C346.021 9.77667 346.937 7.81326 348.537 6.47422C350.134 5.13519 352.226 4.58101 354.276 4.94711L418.878 16.5396C422.235 17.1414 424.665 20.0602 424.658 23.4755L424.472 109.833C424.47 110.29 424.102 110.658 423.644 110.658Z" fill="#074024"/>
<path d="M392.461 30.5645C392.411 30.5645 392.36 30.5594 392.31 30.5519L357.998 24.2504C357.55 24.1677 357.252 23.7364 357.335 23.285C357.418 22.8361 357.846 22.5377 358.296 22.6205L392.608 28.922C393.056 29.0048 393.354 29.436 393.272 29.8849C393.199 30.2861 392.851 30.5645 392.461 30.5645Z" fill="#074024"/>
<path d="M412.032 44.5938C411.982 44.5938 411.932 44.5912 411.879 44.5812L357.998 34.6839C357.55 34.6036 357.252 34.1698 357.335 33.7209C357.418 33.2696 357.846 32.9737 358.296 33.0539L412.18 42.9513C412.628 43.034 412.926 43.4653 412.843 43.9167C412.771 44.3154 412.423 44.5938 412.032 44.5938Z" fill="#074024"/>
<path d="M412.032 55.0303C411.982 55.0303 411.932 55.0253 411.879 55.0177L357.998 45.1204C357.55 45.0377 357.252 44.6064 357.335 44.1575C357.418 43.7062 357.846 43.4078 358.296 43.4905L412.18 53.3878C412.628 53.4706 412.926 53.9019 412.843 54.3507C412.771 54.7519 412.423 55.0303 412.032 55.0303Z" fill="#074024"/>
<path d="M398.198 62.9268C398.148 62.9268 398.098 62.9218 398.047 62.9117L357.998 55.557C357.55 55.4743 357.252 55.043 357.335 54.5941C357.418 54.1428 357.846 53.8444 358.296 53.9271L398.345 61.2818C398.793 61.3646 399.091 61.7959 399.009 62.2472C398.936 62.6459 398.588 62.9268 398.198 62.9268Z" fill="#074024"/>
<path d="M322.047 270.512L246.151 259.153C245.658 259.153 245.498 259.612 245.498 260.051V324.738C245.498 330.932 202.375 347.023 201.954 346.205L201.902 353.051C201.899 354.325 202.961 355.19 204.445 355.456L269.047 367.294C271.998 367.294 274.916 366.632 277.59 365.511L312.575 350.752C318.875 348.096 322.848 342.389 322.848 336.165V271.41C322.848 270.971 322.54 270.512 322.047 270.512Z" fill="#074024"/>
<path d="M237.811 255.384V320.087C237.811 326.466 233.713 332.276 227.275 335.029L203.674 345.122C202.132 345.782 202.497 347.562 204.367 347.85L269.214 359.688C272.13 359.688 275.011 359.112 277.647 357.998L303.799 346.968C310.285 344.232 314.422 338.399 314.422 331.988V267.222C314.422 266.957 314.182 266.743 313.884 266.743L238.349 254.905C238.051 254.905 237.811 255.121 237.811 255.384Z" fill="white"/>
<path d="M265.492 359.836C265.442 359.836 265.394 359.831 265.344 359.824L204.219 348.665C202.95 348.47 202.032 347.662 201.899 346.609C201.779 345.656 202.335 344.794 203.348 344.36L226.952 334.267C233.045 331.662 236.985 326.095 236.985 320.087V306.518C236.985 306.062 237.355 305.691 237.811 305.691C238.269 305.691 238.637 306.062 238.637 306.518V320.087C238.637 326.759 234.306 332.925 227.601 335.791L203.999 345.884C203.689 346.017 203.516 346.21 203.541 346.401C203.571 346.639 203.881 346.938 204.492 347.03L265.64 358.194C266.088 358.274 266.386 358.706 266.305 359.157C266.233 359.556 265.885 359.836 265.492 359.836Z" fill="#074024"/>
<path d="M440.029 322.361L431.564 330.28L124.974 277.13C120.742 276.395 117.673 272.681 117.744 268.381L120.984 72.2622L131.143 66.8008C133.008 65.8053 135.153 65.4667 137.233 65.8429L435.211 119.698C439.684 120.508 442.935 124.407 442.935 128.958L443 315.495C443 318.096 441.926 320.583 440.029 322.361Z" fill="#8DDD99"/>
<path d="M424.74 331.311L124.226 276.954C120.491 276.277 117.773 273.02 117.773 269.216V79.9456C117.773 75.0434 122.201 71.3372 127.015 72.2098L427.528 126.566C431.266 127.243 433.981 130.5 433.981 134.304V323.575C433.981 328.477 429.553 332.183 424.74 331.311Z" fill="#FAF5E3"/>
<path d="M425.694 332.356C425.178 332.356 424.66 332.311 424.144 332.218L135.235 279.958C134.786 279.875 134.487 279.444 134.568 278.995C134.649 278.544 135.082 278.248 135.529 278.326L424.437 330.586C426.487 330.957 428.587 330.403 430.187 329.061C431.789 327.722 432.705 325.756 432.705 323.665V134.392C432.705 130.987 430.277 128.078 426.933 127.474L404.553 123.424C404.102 123.344 403.804 122.912 403.884 122.461C403.967 122.012 404.4 121.716 404.846 121.794L427.226 125.841C431.361 126.588 434.359 130.187 434.359 134.392V323.665C434.359 326.248 433.225 328.677 431.248 330.332C429.671 331.651 427.709 332.356 425.694 332.356Z" fill="#074024"/>
<path d="M117.325 114.397C116.868 114.397 116.498 114.026 116.498 113.569V80.0359C116.498 77.4531 117.632 75.0233 119.61 73.3658C121.588 71.7108 124.178 71.0263 126.713 71.4826L220.62 88.4688C221.068 88.5516 221.366 88.9829 221.286 89.4317C221.206 89.8831 220.772 90.179 220.324 90.1012L126.419 73.115C124.366 72.7414 122.271 73.2981 120.67 74.6372C119.07 75.9787 118.152 77.9446 118.152 80.0359V113.569C118.152 114.026 117.781 114.397 117.325 114.397Z" fill="#074024"/>
<path d="M321.686 294.477C313.018 298.155 302.973 294.803 298.24 286.651L270.714 239.22C256.136 221.198 246.784 199.508 243.681 176.519L232.742 95.5047C230.494 78.8445 241.383 63.245 257.773 59.6442L303.817 49.5237C313.757 47.3396 324.154 49.0196 332.905 54.2253L391.555 89.1129C402.753 95.7755 408.846 108.534 407.001 121.448L397.079 190.85C392.763 221.046 377.703 248.666 354.672 268.621L332.672 287.634C329.386 290.472 325.681 292.782 321.686 294.477Z" fill="#8DDD99"/>
<path d="M296.313 283.451L262.584 241.748C248.006 223.724 238.655 202.033 235.551 179.044L225.583 105.212C222.785 84.4967 236.324 65.0958 256.709 60.6173L295.707 52.0439C305.634 49.8624 316.017 51.5399 324.758 56.7406L378.919 88.9602C392.844 97.2426 400.423 113.11 398.128 129.171L388.949 193.375C384.634 223.573 369.573 251.192 346.539 271.147L328.993 286.353C319.236 294.806 304.433 293.492 296.313 283.451Z" fill="#92AAFF"/>
<path d="M314.105 292.757C313.396 292.757 312.683 292.727 311.967 292.662C305.526 292.09 299.739 289.003 295.669 283.973L261.941 242.27C257.105 236.292 252.789 229.837 249.115 223.087C248.897 222.686 249.045 222.182 249.445 221.963C249.846 221.743 250.349 221.893 250.567 222.295C254.194 228.955 258.454 235.326 263.225 241.227L296.953 282.93C300.738 287.609 306.122 290.48 312.112 291.012C318.104 291.543 323.904 289.665 328.452 285.726L345.999 270.522C368.879 250.695 383.843 223.257 388.13 193.257L397.309 129.054C399.564 113.271 392.18 97.8119 378.496 89.6723L324.335 57.4527C315.744 52.3423 305.642 50.7099 295.885 52.8539L256.884 61.4247C237.073 65.7803 223.684 84.9632 226.402 105.101C226.462 105.555 226.147 105.971 225.694 106.032C225.24 106.102 224.825 105.776 224.762 105.322C223.383 95.0962 225.874 84.8077 231.776 76.3497C237.678 67.8942 246.469 62.019 256.531 59.8073L295.529 51.2365C305.697 48.9998 316.227 50.7024 325.178 56.0259L379.34 88.248C393.602 96.7311 401.296 112.84 398.946 129.287L389.767 193.493C385.422 223.887 370.263 251.688 347.082 271.774L329.533 286.979C325.188 290.743 319.776 292.757 314.105 292.757Z" fill="#074024"/>
<path d="M325.191 273.413C317.521 280.058 305.887 279.025 299.504 271.134L268.834 233.21C256.126 217.5 247.976 198.593 245.27 178.555L235.027 103.005C233.04 88.3331 242.627 74.5867 257.067 71.4121L299.472 62.0915C306.503 60.5469 313.854 61.7354 320.042 65.4165L373.547 97.245C383.252 103.017 388.618 114.003 387.214 125.224L378.979 191.045C375.217 217.367 362.088 241.442 342.014 258.837L325.191 273.413Z" fill="#86E494"/>
<path d="M350.556 128.683L282.906 116.534L271.6 121.15C271.6 121.15 322.119 188.874 322.88 188.578C323.043 188.515 328.772 185.83 328.925 185.752C342.977 178.658 351.423 167.713 351.423 152.392V129.718C351.423 129.207 351.057 128.773 350.556 128.683Z" fill="#8DDD99"/>
<path d="M342.054 134.355L272.406 121.849C271.76 121.734 271.169 122.228 271.169 122.885V155.428C271.169 172.83 283.617 187.733 300.716 190.802C322.71 194.752 342.92 177.813 342.92 155.428V135.39C342.92 134.881 342.555 134.445 342.054 134.355Z" fill="white"/>
<path d="M272.218 122.662C272.153 122.662 272.105 122.687 272.075 122.712C272.04 122.744 271.998 122.797 271.998 122.885V155.428C271.998 172.449 284.135 186.986 300.861 189.987C311.103 191.825 321.554 189.044 329.533 182.357C337.516 175.666 342.091 165.852 342.091 155.428V135.39C342.091 135.282 342.014 135.189 341.909 135.172L272.258 122.664C272.246 122.662 272.231 122.662 272.218 122.662ZM307.078 192.199C304.913 192.199 302.738 192.008 300.568 191.619C283.056 188.475 270.343 173.254 270.343 155.428V122.885C270.343 122.326 270.589 121.799 271.014 121.443C271.442 121.084 272.003 120.934 272.551 121.034L342.201 133.539C343.095 133.7 343.746 134.48 343.746 135.39V155.428C343.746 166.343 338.952 176.622 330.595 183.628C323.929 189.215 315.614 192.199 307.078 192.199Z" fill="#074024"/>
<path d="M313.947 151.912C313.947 146.814 309.944 142.682 304.855 142.682C299.767 142.682 295.979 146.814 295.979 151.912C295.979 155.656 297.672 158.873 301.749 160.32V171.84L307.636 173.086V160.578C311.258 159.287 313.947 155.899 313.947 151.912Z" fill="#074024"/>
<path d="M294.203 121.601C296.193 120.964 297.291 118.83 296.653 116.837C295.469 113.133 293.797 107.907 293.787 107.875C290.874 98.7597 295.897 89.0354 304.996 86.1166C314.094 83.1978 323.819 88.1779 326.73 97.2928C326.742 97.3279 326.34 96.0742 328.134 101.694C328.77 103.69 330.9 104.785 332.89 104.148C334.88 103.509 335.979 101.378 335.343 99.3841C333.548 93.7672 333.954 95.031 333.944 94.9959C329.756 81.8939 315.769 74.6997 302.688 78.8949C289.609 83.09 282.388 97.0696 286.573 110.172C286.583 110.204 288.26 115.443 289.447 119.151C290.083 121.142 292.213 122.241 294.203 121.601Z" fill="white"/>
<path d="M310.262 78.534C307.836 78.534 305.371 78.9051 302.94 79.6849C290.317 83.7321 283.326 97.298 287.361 109.921C287.366 109.934 287.975 111.839 288.718 114.161L290.232 118.896C290.73 120.45 292.395 121.31 293.949 120.811C294.703 120.571 295.316 120.052 295.679 119.347C296.039 118.645 296.107 117.842 295.864 117.09L294.973 114.297C293.989 111.228 293.018 108.193 293.001 108.131C289.957 98.607 295.226 88.3786 304.743 85.327C314.254 82.2778 324.464 87.5236 327.511 97.0222H327.513L327.766 97.8121H327.763C327.969 98.459 328.322 99.5674 328.92 101.441C329.163 102.195 329.681 102.81 330.382 103.171C331.085 103.534 331.886 103.6 332.639 103.359C334.191 102.86 335.05 101.19 334.554 99.6376L333.37 95.9264C333.333 95.8111 333.298 95.6982 333.265 95.5929L333.155 95.2494V95.2469L333.127 95.1616C329.843 85.0135 320.402 78.534 310.262 78.534ZM293.051 122.612C291.101 122.612 289.284 121.361 288.658 119.402L287.144 114.665C286.408 112.366 285.802 110.478 285.787 110.428C281.474 96.9319 288.943 82.4332 302.437 78.1052C315.926 73.7822 330.414 81.2422 334.729 94.7403L334.982 95.5277H334.98C335.185 96.1747 335.538 97.278 336.129 99.131C336.902 101.556 335.563 104.161 333.142 104.936C331.969 105.312 330.719 105.209 329.626 104.645C328.529 104.081 327.721 103.121 327.345 101.947L326.159 98.2258C326.124 98.118 326.091 98.0152 326.061 97.9149L325.944 97.5463C325.944 97.5463 325.944 97.5463 325.941 97.5463L325.921 97.4786C324.572 93.3161 321.691 89.9258 317.806 87.9298C313.901 85.9238 309.441 85.5602 305.248 86.9042C301.056 88.2508 297.636 91.142 295.621 95.0513C293.606 98.9631 293.234 103.427 294.573 107.622C294.58 107.642 295.556 110.698 296.548 113.793L297.441 116.584C297.817 117.76 297.711 119.011 297.148 120.107C296.585 121.203 295.626 122.015 294.455 122.391C293.989 122.539 293.516 122.612 293.051 122.612Z" fill="#074024"/>
<path d="M284.923 213.476C284.953 216.186 282.786 218.41 280.077 218.441C277.372 218.473 275.151 216.299 275.121 213.588C275.091 210.875 277.259 208.651 279.967 208.621C282.673 208.591 284.893 210.762 284.923 213.476Z" fill="#8DDD99"/>
<path d="M300.102 216.214C300.132 218.925 297.965 221.149 295.259 221.179C292.55 221.211 290.333 219.037 290.3 216.327C290.27 213.614 292.438 211.392 295.146 211.359C297.852 211.329 300.072 213.501 300.102 216.214Z" fill="#8DDD99"/>
<path d="M315.281 218.952C315.313 221.663 313.143 223.887 310.437 223.917C307.729 223.95 305.511 221.776 305.479 219.065C305.449 216.352 307.616 214.13 310.325 214.098C313.031 214.067 315.251 216.239 315.281 218.952Z" fill="#8DDD99"/>
<path d="M330.46 221.69C330.492 224.401 328.322 226.625 325.616 226.655C322.908 226.688 320.69 224.514 320.658 221.803C320.627 219.09 322.795 216.868 325.503 216.836C328.209 216.806 330.43 218.98 330.46 221.69Z" fill="#8DDD99"/>
<path d="M345.638 224.428C345.671 227.139 343.501 229.363 340.795 229.396C338.086 229.426 335.869 227.252 335.836 224.541C335.806 221.83 337.974 219.606 340.682 219.574C343.388 219.544 345.608 221.718 345.638 224.428Z" fill="#8DDD99"/>
<path d="M75.5833 137.694L49.1922 110.881C46.4874 108.133 42.2219 107.679 39.0009 109.795L13.6929 126.435L13.6974 168.542C13.6976 170.172 14.8631 171.572 16.466 171.862L74.3701 182.374C74.931 182.474 75.4476 182.046 75.4494 181.474L75.5122 181.484L75.5833 137.694Z" fill="#FAF5E3"/>
<path d="M75.4792 138.347C75.266 138.347 75.0527 138.264 74.891 138.101L48.6043 111.463C46.1835 109.003 42.3361 108.595 39.455 110.488L14.1472 127.128C13.765 127.381 13.2529 127.273 13.0021 126.89C12.7513 126.508 12.8576 125.994 13.2394 125.744L38.5474 109.104C42.085 106.777 46.81 107.281 49.7814 110.3L76.0674 136.935C76.3881 137.261 76.3853 137.785 76.0607 138.106C75.8995 138.266 75.689 138.347 75.4792 138.347Z" fill="#074024"/>
<path d="M51.2081 178.904C51.1598 178.904 51.1105 178.899 51.0617 178.889L16.6575 172.73C14.463 172.339 12.8711 170.433 12.8721 168.199L12.8881 126.022L13.3942 125.806C13.9204 125.586 13.9209 125.586 16.8622 128.557C18.4487 130.159 20.6549 132.394 23.1417 134.911C28.1145 139.949 34.2105 146.13 38.7175 150.704C42.1432 154.177 47.5919 154.759 51.6737 152.085C55.6168 149.503 61.1145 145.99 66.7564 142.446C75.341 137.055 75.3417 137.058 75.8448 137.326L76.2819 137.559L76.3452 160.298C76.3464 160.757 75.977 161.128 75.5202 161.128C75.5197 161.128 75.5189 161.128 75.5182 161.128C75.0624 161.128 74.6924 160.759 74.6912 160.303L74.6338 139.5C71.0815 141.664 60.3185 148.402 52.5785 153.472C47.8405 156.577 41.5165 155.899 37.5408 151.867C25.6437 139.798 17.6069 131.656 14.5409 128.567L14.5261 168.202C14.5256 169.628 15.5441 170.85 16.9483 171.1L51.3523 177.259C51.8023 177.339 52.1014 177.77 52.0211 178.219C51.9495 178.62 51.6008 178.904 51.2081 178.904Z" fill="#074024"/>
<path d="M20.1684 166.018C19.9191 166.018 19.6728 165.905 19.5099 165.692C19.2333 165.328 19.3034 164.806 19.6666 164.531L32.239 154.934C32.6022 154.656 33.1208 154.726 33.3982 155.09C33.6748 155.456 33.6047 155.975 33.2415 156.251L20.6691 165.847C20.5194 165.962 20.3432 166.018 20.1684 166.018Z" fill="#074024"/>
<path d="M63.6928 169.556C63.4633 169.556 63.2348 169.46 63.0713 169.275L54.9459 160.007C54.6445 159.663 54.6783 159.139 55.0217 158.838C55.3644 158.535 55.8868 158.57 56.1886 158.914L64.3139 168.182C64.6155 168.525 64.5814 169.047 64.2383 169.35C64.0813 169.488 63.8868 169.556 63.6928 169.556Z" fill="#074024"/>
<path d="M63.0096 133.592C62.961 133.592 62.912 133.587 62.8627 133.58L25.9649 126.96C25.5153 126.877 25.2162 126.448 25.2968 125.997C25.3769 125.546 25.8047 125.247 26.2567 125.327L63.1545 131.947C63.6041 132.03 63.9029 132.459 63.8226 132.91C63.7507 133.311 63.4023 133.592 63.0096 133.592Z" fill="#8DDD99"/>
<path d="M47.3993 137.481C47.3508 137.481 47.3019 137.476 47.2521 137.469L26.3462 133.718C25.8967 133.635 25.5976 133.206 25.6782 132.755C25.7585 132.303 26.185 132.005 26.6381 132.085L47.544 135.836C47.9935 135.917 48.2927 136.348 48.2121 136.799C48.1405 137.198 47.792 137.481 47.3993 137.481Z" fill="#8DDD99"/>
<path d="M45.6568 144.091C45.6085 144.091 45.5594 144.089 45.5101 144.079L38.2144 142.77C37.7648 142.69 37.4657 142.258 37.5463 141.809C37.6269 141.358 38.0534 141.06 38.5063 141.14L45.8017 142.449C46.2513 142.529 46.5504 142.96 46.4698 143.409C46.3982 143.81 46.0498 144.091 45.6568 144.091Z" fill="#8DDD99"/>
<path d="M85.1812 31.9888L51.0804 25.888C44.676 24.7395 38.753 29.6669 38.7455 36.184L38.7109 49.296C38.7054 54.3713 42.3064 58.7219 47.2945 59.6171C48.9926 59.923 50.2273 61.405 50.2273 63.1327V70.3294C50.2273 71.691 51.8681 72.378 52.835 71.4202L60.7557 63.5715C61.5795 62.7566 62.7477 62.3904 63.8886 62.5936L81.4864 65.7255C87.8963 66.8765 93.9475 61.9391 93.9475 55.417V42.2974C93.9475 37.2246 90.1656 32.8815 85.1812 31.9888Z" fill="#8DDD99"/>
<path d="M49.2269 26.5497C46.9787 26.5497 44.787 27.3371 43.0273 28.8116C40.8351 30.6471 39.5759 33.3352 39.5726 36.1863L39.5381 49.2958C39.5331 53.9799 42.8564 57.9795 47.4405 58.8019C49.5351 59.1806 51.0544 61.001 51.0544 63.1325V70.3291C51.0544 70.7655 51.3858 70.9385 51.4875 70.9811C51.5886 71.0212 51.9438 71.1366 52.2534 70.8307L60.1744 62.982C61.1874 61.979 62.6301 61.5251 64.0334 61.7784L81.6309 64.9103C84.4905 65.4219 87.4158 64.637 89.6623 62.7538C91.86 60.9108 93.1205 58.2352 93.1205 55.4142V42.2972C93.1205 37.7108 89.6448 33.6286 85.0354 32.8036L50.9353 26.7027C50.3663 26.5999 49.7946 26.5497 49.2269 26.5497ZM51.7728 72.6963C51.4649 72.6963 51.1526 72.6361 50.8504 72.5082C49.9561 72.1346 49.4004 71.2996 49.4004 70.3291V63.1325C49.4004 61.8035 48.453 60.6676 47.1476 60.4318C41.7745 59.4664 37.878 54.7823 37.8843 49.2932L37.9186 36.1838C37.9226 32.8412 39.3979 29.6917 41.9668 27.5402C44.5467 25.3787 47.9218 24.4785 51.2262 25.0728L85.3267 31.1737C90.8012 32.1541 94.7743 36.8332 94.7743 42.2972V55.4142C94.7743 58.7292 93.298 61.8661 90.7236 64.0226C88.1004 66.2218 84.6812 67.1395 81.3406 66.5402L63.7443 63.4083C62.8692 63.2553 61.9691 63.5337 61.3376 64.1606L53.4166 72.0092C52.9608 72.4606 52.3756 72.6963 51.7728 72.6963Z" fill="#074024"/>
<path d="M99.6205 21.4395L65.9592 15.3988C59.5894 14.2553 53.736 19.1576 53.7279 25.6396L53.7119 38.9949C53.7059 44.0476 57.3193 48.3756 62.2839 49.2608L81.9268 52.7564C82.6422 52.8817 83.3017 53.2253 83.8173 53.7393L95.4489 65.3142C96.1595 66.0188 97.3687 65.5148 97.3687 64.5118V58.6591C97.3687 56.979 98.5419 55.5497 100.175 55.1711C104.649 54.133 108.193 50.0783 108.217 45.0632L108.233 31.743C108.258 26.6803 104.596 22.3322 99.6205 21.4395Z" fill="white"/>
<path d="M64.1178 16.0628C61.8933 16.0628 59.7267 16.8402 57.9885 18.2946C55.8098 20.1176 54.5588 22.7956 54.5553 25.6392L54.539 38.9969C54.5338 43.6535 57.8521 47.628 62.4295 48.4454L82.0718 51.9384C82.9576 52.0964 83.7631 52.5152 84.4009 53.1521L96.0322 64.7245C96.1548 64.8473 96.289 64.8172 96.3581 64.7897C96.4267 64.7596 96.5421 64.6869 96.5421 64.5113V58.6587C96.5421 56.6025 97.9596 54.8347 99.9885 54.3633C104.256 53.3728 107.369 49.461 107.39 45.0602L107.406 31.7401C107.429 27.071 104.093 23.084 99.4749 22.254L65.8134 16.2133C65.2487 16.113 64.6812 16.0628 64.1178 16.0628ZM96.2412 66.4697C95.7361 66.4697 95.2407 66.2716 94.8665 65.9005L83.235 54.3257C82.8373 53.9295 82.3351 53.6687 81.7827 53.5709L62.1399 50.0778C56.7708 49.1175 52.8788 44.4559 52.8853 38.9944L52.9015 25.6367C52.9053 22.3017 54.3731 19.1622 56.9277 17.0233C59.4826 14.8843 62.8265 13.9966 66.1052 14.5834L99.7668 20.6241C105.178 21.5945 109.087 26.2736 109.06 31.7476L109.044 45.0652C109.019 50.2283 105.368 54.8172 100.362 55.9781C99.0867 56.274 98.1961 57.3773 98.1961 58.6587V64.5113C98.1961 65.3062 97.724 66.0134 96.9936 66.3193C96.7498 66.4196 96.4943 66.4697 96.2412 66.4697Z" fill="#074024"/>
<path d="M98.0411 32.583C97.9926 32.583 97.9435 32.578 97.8939 32.5705L62.6397 26.2439C62.1901 26.1636 61.891 25.7323 61.9716 25.2835C62.052 24.8321 62.481 24.5337 62.9315 24.614L98.1858 30.938C98.6353 31.0208 98.9345 31.4496 98.8539 31.9009C98.7823 32.3021 98.4339 32.583 98.0411 32.583Z" fill="#8DDD99"/>
<path d="M86.3364 37.46C86.2881 37.46 86.2391 37.4575 86.1895 37.4474L62.9367 33.2748C62.4872 33.1946 62.1881 32.7633 62.2684 32.3144C62.349 31.8631 62.777 31.5647 63.2283 31.6449L86.4814 35.8175C86.9309 35.8978 87.2298 36.329 87.1494 36.7779C87.0778 37.1791 86.7292 37.46 86.3364 37.46Z" fill="#8DDD99"/>
<path d="M98.2388 46.4297C98.1902 46.4297 98.1414 46.4247 98.0919 46.4171L62.8376 40.0906C62.3881 40.0103 62.0889 39.5791 62.1693 39.1302C62.2496 38.6788 62.6764 38.3804 63.1295 38.4607L98.3835 44.7872C98.8333 44.8675 99.1324 45.2988 99.0518 45.7477C98.9802 46.1489 98.6315 46.4297 98.2388 46.4297Z" fill="#8DDD99"/>
<path d="M238.439 113.938L181.391 103.702C170.596 101.763 160.677 110.071 160.663 121.057L160.636 191.188C160.625 199.749 166.75 207.083 175.164 208.588L234.604 219.014C244.296 220.561 252.949 211.687 252.999 201.471L253.029 131.4C253.072 122.819 246.869 115.452 238.439 113.938Z" fill="white"/>
<path d="M178.27 104.251C174.368 104.251 170.566 105.615 167.514 108.168C163.692 111.37 161.496 116.067 161.49 121.059L161.463 191.188C161.453 199.363 167.276 206.336 175.309 207.771L234.747 218.2C238.702 218.831 242.699 217.635 245.993 214.832C249.838 211.565 252.146 206.567 252.171 201.469L252.203 131.4C252.243 123.206 246.394 116.207 238.294 114.753L181.246 104.517C180.255 104.339 179.259 104.251 178.27 104.251ZM236.825 220.02C236.044 220.02 235.26 219.957 234.474 219.832L175.021 209.403C166.195 207.826 159.798 200.165 159.809 191.186L159.837 121.057C159.843 115.573 162.255 110.412 166.454 106.897C170.653 103.381 176.148 101.919 181.537 102.887L238.584 113.123C247.478 114.72 253.901 122.408 253.858 131.403L253.825 201.472C253.798 207.053 251.27 212.517 247.065 216.096C244.043 218.666 240.477 220.02 236.825 220.02Z" fill="#074024"/>
<path d="M230.011 175.541C229.556 175.541 229.185 175.17 229.185 174.714V155.824C229.185 155.365 229.556 154.994 230.011 154.994C230.469 154.994 230.837 155.365 230.837 155.824V174.714C230.837 175.17 230.469 175.541 230.011 175.541Z" fill="#8DDD99"/>
<path d="M230.011 152.873C229.556 152.873 229.185 152.502 229.185 152.046V148.013C229.185 140.388 224.697 133.46 217.751 130.36C217.333 130.172 217.145 129.683 217.331 129.264C217.516 128.848 218.006 128.658 218.422 128.846C225.966 132.211 230.837 139.736 230.837 148.013V152.046C230.837 152.502 230.469 152.873 230.011 152.873Z" fill="#8DDD99"/>
<path d="M214.076 129.126C214.019 129.126 213.964 129.121 213.906 129.108C213.891 129.106 213.839 129.093 213.746 129.066C208.382 127.544 201.095 126.696 196.738 128.883C196.33 129.088 195.831 128.923 195.629 128.514C195.423 128.105 195.589 127.606 195.997 127.401C202.012 124.379 211.448 126.691 214.197 127.473L214.277 127.494C214.71 127.609 214.977 128.053 214.875 128.489C214.785 128.868 214.449 129.126 214.076 129.126Z" fill="#8DDD99"/>
<path d="M183.654 147.717C183.199 147.717 182.828 147.346 182.828 146.89C182.828 139.981 186.225 133.514 191.912 129.595C192.29 129.334 192.803 129.43 193.063 129.806C193.321 130.184 193.226 130.699 192.85 130.959C187.609 134.573 184.483 140.528 184.483 146.89C184.483 147.346 184.112 147.717 183.654 147.717Z" fill="#8DDD99"/>
<path d="M183.654 174.417C183.199 174.417 182.828 174.046 182.828 173.59V151.659C182.828 151.203 183.199 150.831 183.654 150.831C184.112 150.831 184.483 151.203 184.483 151.659V173.59C184.483 174.046 184.112 174.417 183.654 174.417Z" fill="#8DDD99"/>
<path d="M224.592 185.667C224.134 185.667 223.764 185.295 223.764 184.839V151.005C223.764 144.207 218.96 138.206 212.34 136.737C211.892 136.639 211.611 136.197 211.709 135.749C211.809 135.305 212.252 135.024 212.695 135.119C220.067 136.757 225.418 143.434 225.418 151.005V184.839C225.418 185.295 225.048 185.667 224.592 185.667Z" fill="#8DDD99"/>
<path d="M189.076 189.235C188.618 189.235 188.248 188.864 188.248 188.405V150.142C188.248 145.458 190.263 141.002 193.774 137.915C197.291 134.826 201.959 133.399 206.583 134.008C207.036 134.069 207.354 134.485 207.293 134.936C207.236 135.39 206.82 135.709 206.367 135.651C202.217 135.107 198.025 136.386 194.866 139.161C191.712 141.932 189.902 145.937 189.902 150.142V188.405C189.902 188.864 189.532 189.235 189.076 189.235Z" fill="#8DDD99"/>
<path d="M218.6 194.844C218.144 194.844 217.774 194.473 217.774 194.017V174.939C217.774 174.483 218.144 174.112 218.6 174.112C219.058 174.112 219.428 174.483 219.428 174.939V194.017C219.428 194.473 219.058 194.844 218.6 194.844Z" fill="#8DDD99"/>
<path d="M218.6 170.323C218.144 170.323 217.774 169.954 217.774 169.495V154.31C217.774 149.768 214.537 145.877 210.079 145.059L206.97 144.49C204.222 143.983 201.416 144.723 199.271 146.516C197.123 148.306 195.894 150.939 195.894 153.738V157.775C195.894 158.231 195.524 158.602 195.066 158.602C194.61 158.602 194.24 158.231 194.24 157.775V153.738C194.24 150.445 195.687 147.349 198.212 145.242C200.735 143.133 204.037 142.266 207.268 142.86L210.377 143.429C215.621 144.392 219.428 148.968 219.428 154.31V169.495C219.428 169.954 219.058 170.323 218.6 170.323Z" fill="#8DDD99"/>
<path d="M195.066 193.676C194.61 193.676 194.24 193.305 194.24 192.846V162.532C194.24 162.076 194.61 161.704 195.066 161.704C195.524 161.704 195.894 162.076 195.894 162.532V192.846C195.894 193.305 195.524 193.676 195.066 193.676Z" fill="#8DDD99"/>
<path d="M212.61 196.479C212.152 196.479 211.784 196.108 211.784 195.652V157.614C211.784 155.588 210.339 153.853 208.349 153.489L206.825 153.209C205.601 152.983 204.347 153.311 203.391 154.111C202.432 154.911 201.884 156.085 201.884 157.334V181.378C201.884 181.837 201.514 182.208 201.058 182.208C200.6 182.208 200.229 181.837 200.229 181.378V157.334C200.229 155.593 200.995 153.953 202.332 152.84C203.666 151.724 205.413 151.265 207.123 151.579L208.647 151.86C211.423 152.369 213.436 154.788 213.436 157.614V195.652C213.436 196.108 213.065 196.479 212.61 196.479Z" fill="#8DDD99"/>
<path d="M201.058 195.429C200.6 195.429 200.229 195.058 200.229 194.601V186.459C200.229 186.003 200.6 185.632 201.058 185.632C201.514 185.632 201.884 186.003 201.884 186.459V194.601C201.884 195.058 201.514 195.429 201.058 195.429Z" fill="#8DDD99"/>
<path d="M206.405 196.038C205.949 196.038 205.579 195.667 205.579 195.211V160.416C205.579 159.957 205.949 159.588 206.405 159.588C206.863 159.588 207.233 159.957 207.233 160.416V195.211C207.233 195.667 206.863 196.038 206.405 196.038Z" fill="#8DDD99"/>
<path d="M147.872 399.125C146.422 383.452 157.782 369.555 173.244 368.086C188.708 366.617 202.42 378.129 203.872 393.801C205.321 409.471 193.962 423.368 178.498 424.837C163.034 426.309 149.323 414.794 147.872 399.125Z" fill="#074024"/>
<path d="M175.915 368.789C175.056 368.789 174.19 368.829 173.322 368.912C158.337 370.336 147.289 383.854 148.696 399.047C149.382 406.467 152.894 413.155 158.582 417.877C164.176 422.518 171.219 424.697 178.42 424.013C193.406 422.588 204.452 409.07 203.048 393.877C202.36 386.457 198.85 379.772 193.161 375.05C188.24 370.968 182.198 368.789 175.915 368.789ZM175.825 425.793C169.157 425.793 162.747 423.484 157.527 419.153C151.498 414.148 147.776 407.062 147.049 399.2C145.559 383.099 157.275 368.774 173.166 367.262C180.806 366.537 188.282 368.849 194.217 373.774C200.245 378.779 203.967 385.863 204.695 393.724C206.184 409.825 194.468 424.153 178.576 425.663C177.654 425.75 176.736 425.793 175.825 425.793Z" fill="#074024"/>
<path d="M187.529 407.746L183.805 403.064C183.494 402.676 182.838 402.365 182.345 402.372L181.717 402.385C181.151 402.395 180.601 402.538 180.078 402.753C178.608 403.365 176.233 403.388 173.129 397.936C170.043 392.518 171.217 390.439 172.466 389.448C173.011 389.017 173.452 388.468 173.807 387.869L173.948 387.633C174.203 387.204 174.263 386.472 174.088 386.005L171.953 380.394C171.775 379.927 171.232 379.621 170.746 379.711L169.369 379.967C168.211 380.183 167.139 380.77 166.373 381.675C163.117 385.529 163.663 393.252 168.033 400.92C172.411 408.606 178.756 412.952 183.682 411.994C184.816 411.773 185.835 411.141 186.583 410.248L187.514 409.143C187.832 408.762 187.84 408.132 187.529 407.746Z" fill="#8DDD99"/>
<path d="M346.759 411.176C346.759 411.176 321.213 362.64 335.245 313.73C335.713 312.093 342.264 313.6 342.824 311.967C343.54 309.876 338.296 304.648 339.17 302.566C342.416 294.833 346.787 287.183 352.541 279.808C352.541 279.808 362.774 294.006 367.742 316.659C368.118 318.369 361.275 323.474 361.582 325.275C361.873 326.978 369.319 325.373 369.54 327.156C372.388 350.2 368.836 379.704 346.759 411.176Z" fill="#074024"/>
<path d="M321.974 345.533C320.805 343.921 314.312 349.864 313.123 348.334C311.952 346.825 314.948 335.789 313.766 334.36C290.593 306.353 266.108 293.675 266.108 293.675C264.113 308.387 264.508 322.449 266.646 335.741C266.989 337.863 276.348 341.303 276.776 343.387C277.247 345.671 269.667 348.62 270.233 350.857C278.603 383.892 296.48 409.78 314.029 429.833C327.473 423.89 339.596 418.273 350.582 410.908C344.96 383.33 334.634 362.976 321.974 345.533Z" fill="#8DDD99"/>
<path d="M329.516 410.812C329.248 410.812 328.988 410.682 328.827 410.444C322.597 401.123 316.52 391.504 310.765 381.858C310.532 381.464 310.66 380.958 311.051 380.722C311.444 380.489 311.952 380.614 312.184 381.008C317.926 390.632 323.986 400.226 330.202 409.524C330.454 409.902 330.354 410.416 329.974 410.672C329.834 410.767 329.673 410.812 329.516 410.812Z" fill="#DCFFE1"/>
<path d="M303.431 368.395C303.143 368.395 302.863 368.242 302.71 367.974C293.402 351.464 284.686 334.327 276.806 317.035L273.204 309.129C273.014 308.713 273.199 308.221 273.615 308.031C274.03 307.84 274.521 308.023 274.709 308.439L278.311 316.346C286.17 333.595 294.863 350.692 304.15 367.159C304.375 367.558 304.235 368.062 303.837 368.287C303.709 368.36 303.569 368.395 303.431 368.395Z" fill="#DCFFE1"/>
<path d="M345.25 414.306C345.25 414.306 333.646 354.759 390.042 333.392C390.042 333.392 395.351 385.426 345.25 414.306Z" fill="#8DDD99"/>
<path d="M355.235 398.591C355.15 398.591 355.062 398.578 354.977 398.551C354.542 398.408 354.306 397.939 354.449 397.505C360.734 378.297 380.608 348.435 380.809 348.134C381.064 347.753 381.577 347.652 381.955 347.908C382.336 348.161 382.436 348.675 382.183 349.057C381.983 349.352 362.233 379.032 356.021 398.019C355.906 398.37 355.583 398.591 355.235 398.591Z" fill="#DCFFE1"/>
<path d="M174.859 48.6789C167.712 47.1694 163.128 40.1959 164.621 33.0995C166.114 26.0056 173.117 21.4769 180.263 22.9865C187.409 24.496 191.992 31.4696 190.5 38.566C189.006 45.6598 182.005 50.1859 174.859 48.6789ZM204.044 45.6071L201.066 43.1799C200.585 42.7887 200.367 42.1568 200.518 41.56C200.675 40.9281 200.808 40.2937 200.913 39.6592C201.011 39.0524 201.461 38.5634 202.055 38.3929L205.744 37.3447C206.47 37.1366 206.953 36.4571 206.908 35.7073L206.723 32.6531C206.678 31.9034 206.114 31.284 205.369 31.1586L201.566 30.5317C200.953 30.4289 200.45 29.9876 200.275 29.3933C200.097 28.7764 199.892 28.1696 199.664 27.5703C199.444 26.9911 199.579 26.3391 200.012 25.8928L202.678 23.1445C203.201 22.6028 203.276 21.7728 202.861 21.1459L201.163 18.5882C200.745 17.9588 199.947 17.7006 199.239 17.9639L195.647 19.3029C195.066 19.5185 194.408 19.3857 193.96 18.9569C193.497 18.513 193.011 18.0892 192.508 17.6805C192.025 17.2868 191.812 16.6524 191.962 16.0506L192.881 12.3444C193.061 11.6147 192.708 10.8575 192.032 10.5189L189.279 9.14228C188.601 8.80375 187.782 8.97678 187.301 9.55602L184.868 12.5049C184.478 12.9813 183.842 13.197 183.241 13.0465C182.606 12.886 181.965 12.7531 181.327 12.6453C180.716 12.545 180.22 12.0962 180.048 11.5069L178.979 7.83835C178.768 7.11366 178.083 6.6322 177.327 6.67483L174.255 6.84786C173.499 6.89049 172.876 7.44717 172.756 8.1894L172.138 11.9608C172.038 12.5676 171.6 13.0691 171.004 13.2371C170.378 13.4152 169.762 13.6183 169.154 13.8464C168.576 14.0621 167.921 13.9192 167.474 13.4904L164.697 10.8324C164.151 10.3108 163.316 10.2306 162.685 10.6443L160.117 12.3219C159.486 12.7331 159.227 13.5255 159.496 14.2276L160.856 17.8034C161.077 18.3801 160.945 19.0346 160.515 19.4784C160.071 19.9373 159.643 20.4162 159.235 20.9153C158.841 21.3942 158.202 21.6023 157.597 21.4519L153.862 20.5266C153.128 20.3435 152.366 20.6921 152.028 21.3616L150.653 24.0923C150.315 24.7643 150.491 25.5793 151.076 26.0582L154.054 28.4856C154.535 28.8768 154.754 29.5086 154.604 30.1054C154.445 30.7374 154.313 31.3718 154.209 32.0062C154.11 32.613 153.66 33.102 153.066 33.2725L149.377 34.3206C148.651 34.5288 148.167 35.2083 148.213 35.9581L148.399 39.0123C148.445 39.762 149.007 40.3814 149.754 40.5043L153.553 41.1337C154.164 41.234 154.671 41.6728 154.843 42.2646C155.023 42.8865 155.229 43.4983 155.46 44.1052C155.68 44.6794 155.538 45.3288 155.11 45.7727L152.444 48.521C151.92 49.0626 151.844 49.8926 152.261 50.5195L153.959 53.0772C154.376 53.7066 155.175 53.9648 155.882 53.7016L159.474 52.3625C160.056 52.1444 160.713 52.2773 161.162 52.7086C161.625 53.1499 162.11 53.5762 162.613 53.9849C163.098 54.3786 163.309 55.013 163.16 55.6148L162.241 59.321C162.06 60.0507 162.412 60.808 163.089 61.1465L165.843 62.5232C166.52 62.8617 167.34 62.6887 167.819 62.1094L170.25 59.1605C170.643 58.6841 171.279 58.4684 171.88 58.6189C172.516 58.7793 173.154 58.9123 173.795 59.0176C174.406 59.1204 174.901 59.5692 175.074 60.1585L176.143 63.8271C176.353 64.5493 177.039 65.0332 177.795 64.9906L180.866 64.8176C181.622 64.7749 182.245 64.2183 182.365 63.476L182.984 59.7022C183.084 59.0928 183.529 58.5938 184.128 58.4233C184.746 58.2478 185.357 58.0472 185.957 57.824C186.54 57.6058 187.196 57.7437 187.647 58.175L190.425 60.8331C190.971 61.3546 191.804 61.4324 192.438 61.0211L195.006 59.3436C195.637 58.9323 195.894 58.1399 195.627 57.4353L194.265 53.862C194.045 53.2828 194.175 52.6308 194.605 52.187C195.051 51.7281 195.476 51.2492 195.887 50.7502C196.28 50.2687 196.918 50.0631 197.524 50.2111L201.259 51.1389C201.994 51.3219 202.755 50.9733 203.093 50.3038L204.467 47.5731C204.805 46.9011 204.63 46.0861 204.044 45.6071Z" fill="#8DDD99"/>
<path d="M220.785 28.7236C216.187 26.5697 214.187 21.1258 216.317 16.562C218.445 11.9957 223.899 10.0423 228.497 12.1938C233.093 14.3478 235.095 19.7917 232.965 24.3555C230.835 28.9192 225.383 30.8751 220.785 28.7236ZM241.017 31.2663L239.388 29.1524C239.123 28.8114 239.075 28.35 239.27 27.9689C239.478 27.5677 239.666 27.1589 239.838 26.7452C240.001 26.3515 240.382 26.0907 240.81 26.0706L243.473 25.9428C243.996 25.9202 244.432 25.5365 244.519 25.02L244.875 22.9261C244.962 22.4096 244.679 21.9006 244.194 21.7L241.721 20.6719C241.32 20.5064 241.05 20.1277 241.027 19.6964C241.002 19.2526 240.96 18.8088 240.9 18.3674C240.842 17.9412 241.037 17.5199 241.4 17.2892L243.638 15.8498C244.076 15.5665 244.259 15.0173 244.076 14.5258L243.33 12.5273C243.147 12.0359 242.649 11.7349 242.129 11.8001L239.485 12.1387C239.057 12.1913 238.634 11.9982 238.399 11.6372C238.156 11.2635 237.896 10.8974 237.618 10.5414C237.353 10.2003 237.31 9.73643 237.506 9.35278L238.712 6.99063C238.95 6.52673 238.83 5.95753 238.427 5.62151L236.78 4.25489C236.374 3.91888 235.793 3.90387 235.378 4.22233L233.265 5.83216C232.925 6.09044 232.462 6.1381 232.079 5.94C231.673 5.72937 231.263 5.53878 230.847 5.36576C230.449 5.20026 230.184 4.81909 230.162 4.39281L230.016 1.73984C229.989 1.21827 229.601 0.781939 229.083 0.691667L226.975 0.323075C226.459 0.232803 225.949 0.511123 225.751 0.992573L224.737 3.44748C224.572 3.84117 224.197 4.11195 223.769 4.13201C223.318 4.15207 222.868 4.19223 222.422 4.2499C221.994 4.30507 221.576 4.10443 221.341 3.74334L219.881 1.50662C219.594 1.06529 219.04 0.879714 218.55 1.06026L216.547 1.78745C216.054 1.96549 215.754 2.46202 215.824 2.98109L216.182 5.61402C216.239 6.0403 216.047 6.46156 215.686 6.69477C215.313 6.93298 214.948 7.19124 214.592 7.46457C214.252 7.72535 213.786 7.76546 213.401 7.56737L211.021 6.3487C210.552 6.11049 209.982 6.22333 209.646 6.62454L208.285 8.25445C207.952 8.65566 207.942 9.23493 208.262 9.65119L209.894 11.765C210.157 12.1061 210.207 12.5675 210.009 12.9486C209.804 13.3498 209.614 13.7585 209.444 14.1723C209.281 14.566 208.898 14.8268 208.47 14.8468L205.809 14.9747C205.284 14.9998 204.85 15.3809 204.763 15.8975L204.407 17.9913C204.32 18.5079 204.603 19.0169 205.088 19.2175L207.559 20.2456C207.957 20.4111 208.23 20.7847 208.255 21.2135C208.277 21.6624 208.32 22.1112 208.382 22.5576C208.44 22.9813 208.24 23.3976 207.882 23.6283L205.644 25.0676C205.203 25.351 205.021 25.9001 205.203 26.3916L205.949 28.3901C206.132 28.8816 206.633 29.1825 207.153 29.1173L209.794 28.7788C210.222 28.7261 210.645 28.9192 210.883 29.2803C211.126 29.6539 211.386 30.02 211.661 30.3736C211.929 30.7171 211.972 31.181 211.776 31.5647L210.567 33.9268C210.332 34.3907 210.45 34.9599 210.855 35.2959L212.5 36.6626C212.905 36.9986 213.489 37.0136 213.902 36.6952L216.014 35.0853C216.355 34.8245 216.818 34.7794 217.201 34.9775C217.606 35.1881 218.019 35.3787 218.435 35.5517C218.833 35.7172 219.095 36.0984 219.118 36.5246L219.263 39.1777C219.293 39.6992 219.681 40.1355 220.197 40.2258L222.304 40.5944C222.823 40.6847 223.331 40.4063 223.531 39.9249L224.545 37.47C224.707 37.0738 225.088 36.8055 225.518 36.7854C225.964 36.7654 226.409 36.7252 226.852 36.6676C227.28 36.6124 227.704 36.8105 227.941 37.1741L229.401 39.4108C229.686 39.8522 230.239 40.0377 230.732 39.8572L232.735 39.13C233.225 38.952 233.526 38.4555 233.456 37.9364L233.098 35.3035C233.04 34.8772 233.233 34.4559 233.593 34.2227C233.966 33.9845 234.332 33.7262 234.687 33.4529C235.03 33.1921 235.493 33.152 235.881 33.3501L238.261 34.5688C238.73 34.807 239.3 34.6941 239.633 34.2929L240.995 32.663C241.33 32.2618 241.34 31.6826 241.017 31.2663Z" fill="#8DDD99"/>
<path d="M247.968 384.032C246.577 384.032 245.443 385.165 245.443 386.562C245.443 387.956 246.577 389.092 247.968 389.092C249.362 389.092 250.494 387.956 250.494 386.562C250.494 385.165 249.362 384.032 247.968 384.032ZM247.968 390.747C245.663 390.747 243.788 388.869 243.788 386.562C243.788 384.252 245.663 382.374 247.968 382.374C250.274 382.374 252.148 384.252 252.148 386.562C252.148 388.869 250.274 390.747 247.968 390.747Z" fill="#074024"/>
<path d="M238.99 415.098C236.87 415.098 235.145 416.826 235.145 418.947C235.145 421.071 236.87 422.799 238.99 422.799C241.107 422.799 242.832 421.071 242.832 418.947C242.832 416.826 241.107 415.098 238.99 415.098ZM238.99 424.454C235.959 424.454 233.493 421.984 233.493 418.947C233.493 415.91 235.959 413.44 238.99 413.44C242.019 413.44 244.487 415.91 244.487 418.947C244.487 421.984 242.019 424.454 238.99 424.454Z" fill="#074024"/>
<path d="M155.672 329.473C155.46 329.473 155.249 329.392 155.087 329.232L153.191 327.331C152.868 327.008 152.868 326.484 153.191 326.16C153.514 325.837 154.037 325.837 154.36 326.16L156.256 328.058C156.58 328.382 156.58 328.908 156.256 329.232C156.095 329.392 155.883 329.473 155.672 329.473Z" fill="#074024"/>
<path d="M162.836 336.649C162.624 336.649 162.412 336.569 162.251 336.406L160.354 334.508C160.032 334.184 160.032 333.66 160.354 333.337C160.678 333.013 161.201 333.013 161.524 333.337L163.42 335.235C163.743 335.559 163.743 336.083 163.42 336.406C163.259 336.569 163.047 336.649 162.836 336.649Z" fill="#074024"/>
<path d="M153.776 336.649C153.564 336.649 153.353 336.569 153.191 336.406C152.868 336.083 152.868 335.559 153.191 335.235L155.087 333.337C155.41 333.013 155.934 333.013 156.256 333.337C156.58 333.66 156.58 334.184 156.256 334.508L154.36 336.406C154.199 336.569 153.987 336.649 153.776 336.649Z" fill="#074024"/>
<path d="M160.939 329.473C160.728 329.473 160.516 329.392 160.354 329.232C160.032 328.908 160.032 328.382 160.354 328.058L162.251 326.16C162.574 325.837 163.097 325.837 163.42 326.16C163.743 326.484 163.743 327.008 163.42 327.331L161.524 329.232C161.362 329.392 161.151 329.473 160.939 329.473Z" fill="#074024"/>
<path d="M83.0746 413.536C83.0746 413.536 79.539 429.714 83.4488 434.336L84.6618 436.319L80.8799 437.937C76.076 439.99 70.5064 439.073 66.6271 435.59L66.1045 435.121L67.0231 433.077C68.6579 429.439 71.4693 418.15 71.1987 414.305L83.0746 413.536Z" fill="#F8BD7F"/>
<path d="M67.1068 434.908L67.1789 434.973C70.8089 438.233 76.0591 439.098 80.5551 437.175L83.4559 435.933L82.775 434.823C79.274 430.565 81.323 418.193 82.0486 414.434L72.0401 415.081C71.9475 419.617 69.3528 429.91 67.7771 433.416L67.1068 434.908ZM75.6075 439.843C72.1475 439.843 68.7291 438.592 66.075 436.207L65.5524 435.738C65.2843 435.497 65.2022 435.111 65.3504 434.783L66.269 432.736C67.8512 429.216 70.6326 418.04 70.3741 414.363C70.3583 414.145 70.4311 413.927 70.5758 413.762C70.7205 413.596 70.9257 413.493 71.1455 413.478L83.0211 412.711C83.2807 412.696 83.5322 412.799 83.7017 412.997C83.8709 413.195 83.9377 413.461 83.8821 413.714C82.924 418.105 81.091 430.269 84.0796 433.802C84.1067 433.835 84.1315 433.867 84.1535 433.905L85.3665 435.886C85.4921 436.091 85.5224 436.34 85.4496 436.57C85.3765 436.801 85.2075 436.987 84.986 437.082L81.2044 438.699C79.4062 439.467 77.5003 439.843 75.6075 439.843Z" fill="#074024"/>
<path d="M84.4499 428.797L86.5793 430.69C90.8257 434.466 95.917 437.144 101.414 438.491L102.463 438.747C102.862 438.844 103.188 439.138 103.333 439.527L103.406 439.725C104.223 441.921 102.268 447.405 94.3027 450.179C92.235 450.898 86.7027 450.359 78.4831 450.354C74.918 450.352 71.2425 450.344 69.1121 450.337C67.0205 450.332 64.9497 449.767 63.2161 448.586C61.2785 447.262 59.5236 445.046 60.2542 441.462C60.9709 437.949 63.7941 431.069 65.3209 428.478C65.6161 427.979 66.2588 427.864 66.7234 428.21L68.3061 432.097C69.3777 434.727 72.062 436.42 74.8446 435.991C75.0193 435.963 75.1956 435.931 75.3738 435.891C77.1595 435.479 78.6984 434.338 79.7772 432.844L82.5438 429.007C82.9936 428.383 83.8767 428.285 84.4499 428.797Z" fill="#92AAFF"/>
<path d="M66.0897 428.847C66.0669 428.857 66.0482 428.874 66.0329 428.9C64.4822 431.53 61.7424 438.303 61.0645 441.628C60.5314 444.241 61.4122 446.352 63.6815 447.899C65.2169 448.947 67.0954 449.504 69.1144 449.509C71.2443 449.514 74.9191 449.524 78.4834 449.527C81.2821 449.527 83.7414 449.589 85.9108 449.647C89.9139 449.747 92.8067 449.82 94.0312 449.396C99.4001 447.526 101.441 444.612 102.179 443.04C102.828 441.658 102.838 440.57 102.631 440.013L102.558 439.815C102.509 439.682 102.4 439.584 102.267 439.552L101.218 439.296C95.6122 437.922 90.3602 435.161 86.0302 431.309L83.9011 429.416C83.7664 429.296 83.6205 429.291 83.5424 429.301C83.4658 429.308 83.3211 429.343 83.214 429.494L80.4476 433.328C79.1953 435.066 77.4587 436.262 75.5583 436.698C75.3596 436.743 75.1638 436.781 74.9709 436.811C71.8475 437.292 68.7915 435.482 67.5405 432.41L66.0897 428.847ZM90.1983 451.382C88.9653 451.382 87.5248 451.345 85.8687 451.302C83.7088 451.247 81.2606 451.184 78.4827 451.182C74.9168 451.179 71.2405 451.172 69.1102 451.167C66.7593 451.159 64.5601 450.505 62.7506 449.271C59.9179 447.338 58.7745 444.579 59.4441 441.297C60.1632 437.769 62.9634 430.848 64.6089 428.057C64.8655 427.623 65.293 427.317 65.7813 427.217C66.2787 427.119 66.8018 427.237 67.2166 427.545C67.338 427.636 67.4321 427.759 67.4889 427.899L69.0716 431.783C70.0173 434.105 72.3942 435.53 74.7191 435.173C74.8745 435.148 75.0317 435.118 75.1906 435.081C76.6985 434.737 78.0897 433.769 79.1069 432.357L81.8733 428.523C82.225 428.034 82.7674 427.719 83.3616 427.653C83.9556 427.586 84.5521 427.779 84.9992 428.177L87.1285 430.071C91.2578 433.744 96.2657 436.377 101.611 437.686L102.659 437.942C103.325 438.105 103.867 438.589 104.108 439.236L104.181 439.436C104.608 440.582 104.423 442.152 103.676 443.744C102.826 445.552 100.515 448.892 94.5742 450.961C93.6423 451.285 92.1925 451.382 90.1983 451.382Z" fill="#074024"/>
<path d="M73.0956 447.358C66.2837 447.358 62.9026 443.732 62.7564 443.571C62.4488 443.233 62.4728 442.711 62.8102 442.403C63.1466 442.095 63.6683 442.117 63.9769 442.453C64.0345 442.516 67.3295 445.981 73.8675 445.685C78.8887 445.47 86.3023 445.557 90.2752 445.63C92.5725 445.673 94.7339 445.053 96.5256 443.842C97.1085 443.449 97.5468 443.06 97.8284 442.689C98.1045 442.325 98.6232 442.253 98.9871 442.528C99.3508 442.807 99.4221 443.326 99.1463 443.689C98.7546 444.208 98.1841 444.722 97.4502 445.216C95.3754 446.618 92.8786 447.333 90.2451 447.285C86.2913 447.215 78.9157 447.125 73.9386 447.34C73.6523 447.353 73.3707 447.358 73.0956 447.358Z" fill="#074024"/>
<path d="M30.2034 412.598C30.2034 412.598 25.3385 422.488 26.8533 428.102L27.1294 430.334L11.3423 420.467L13.0847 419.338C16.5392 417.049 19.9421 413.348 21.0852 409.812L30.2034 412.598Z" fill="#F8BD7F"/>
<path d="M12.8848 420.454L26.0953 428.709L26.0395 428.26C24.7561 423.353 27.884 415.702 29.0509 413.112L21.5922 410.832C20.2764 414.07 17.2006 417.603 13.5409 420.028L12.8848 420.454ZM27.1293 431.161C26.9773 431.161 26.8257 431.119 26.6915 431.036L10.9044 421.169C10.6643 421.018 10.5174 420.755 10.5152 420.471C10.5132 420.188 10.6556 419.922 10.8934 419.769L12.6358 418.641C16.2857 416.224 19.2964 412.655 20.2984 409.556C20.4378 409.127 20.8959 408.887 21.3264 409.019L30.4444 411.805C30.6764 411.876 30.8656 412.044 30.962 412.267C31.0584 412.49 31.0524 412.746 30.9452 412.964C30.8977 413.059 26.2359 422.638 27.6517 427.886C27.6614 427.924 27.669 427.961 27.674 427.999L27.95 430.231C27.9891 430.547 27.8429 430.86 27.5743 431.031C27.4387 431.119 27.2842 431.161 27.1293 431.161Z" fill="#074024"/>
<path d="M28.646 424.82L28.9333 427.548C29.5023 432.949 31.3618 438.128 34.3514 442.641L36.649 446.109C36.8678 446.44 36.9106 446.856 36.7634 447.225L36.6886 447.413C35.8565 449.497 30.9691 452.08 23.5835 448.822C19.0144 446.809 14.4022 440.643 1.24885 428.22C0.569012 427.578 0.785774 426.405 1.37675 425.678C3.53139 423.032 8.92251 416.899 13.7372 415.417C14.2731 415.251 14.8343 415.575 14.9419 416.131L15.9772 421.472C16.442 423.87 18.7461 425.429 21.1155 424.948L27.1676 423.722C27.884 423.579 28.5689 424.085 28.646 424.82Z" fill="#92AAFF"/>
<path d="M14.0219 416.201C14.0094 416.201 13.9957 416.204 13.9807 416.209C9.36924 417.628 4.0785 423.669 2.01772 426.201C1.66955 426.63 1.50885 427.325 1.81597 427.616C6.64615 432.177 10.3209 435.891 13.2733 438.875C18.3625 444.018 21.1657 446.851 23.9168 448.065C28.8817 450.254 32.1735 449.537 33.6928 448.915C35.0192 448.373 35.7133 447.623 35.9211 447.104L35.9959 446.919C36.0422 446.801 36.029 446.671 35.9604 446.568L33.6626 443.1C30.6116 438.493 28.6917 433.145 28.111 427.633L27.8239 424.907C27.8064 424.742 27.7093 424.647 27.6529 424.607C27.5986 424.566 27.4842 424.504 27.3318 424.536L21.2796 425.76C19.9224 426.036 18.54 425.763 17.3871 424.988C16.2229 424.208 15.4339 423.017 15.1656 421.63L14.1303 416.289C14.1266 416.269 14.1171 416.239 14.0825 416.219C14.0685 416.209 14.048 416.201 14.0219 416.201ZM30.2151 451.199C28.3555 451.199 26.0224 450.803 23.2508 449.582C20.212 448.24 17.33 445.329 12.0988 440.043C9.15498 437.067 5.49123 433.365 0.681832 428.822C-0.355191 427.844 -0.10513 426.189 0.735652 425.156C2.8918 422.505 8.45062 416.176 13.4948 414.624C13.9781 414.474 14.5025 414.539 14.9333 414.797C15.3596 415.053 15.6587 415.482 15.7541 415.973L16.7893 421.314C16.9731 422.262 17.512 423.079 18.307 423.611C19.0909 424.138 20.0293 424.323 20.9517 424.138L27.0039 422.911C27.5713 422.796 28.1643 422.927 28.6314 423.27C29.102 423.616 29.4071 424.15 29.4687 424.734L29.7558 427.46C30.3087 432.708 32.1362 437.799 35.0407 442.182L37.3383 445.653C37.7073 446.207 37.7799 446.911 37.5313 447.533L37.4565 447.721C37.0182 448.817 35.8745 449.813 34.3186 450.449C33.4405 450.808 32.0611 451.199 30.2151 451.199Z" fill="#074024"/>
<path d="M31.5679 446.743C31.5278 446.743 31.4873 446.738 31.4462 446.733L30.2087 446.55C26.0218 445.933 22.0685 443.927 19.0773 440.903L5.33968 427.019C5.01829 426.693 5.02054 426.169 5.34469 425.845C5.66908 425.524 6.19273 425.527 6.51437 425.853L20.252 439.737C22.9928 442.508 26.6145 444.346 30.45 444.91L31.6872 445.093C32.1393 445.161 32.4517 445.582 32.3849 446.034C32.3243 446.445 31.9711 446.743 31.5679 446.743Z" fill="#074024"/>
<path d="M92.2149 250.449C103.021 253.453 109.714 255.292 109.714 255.292C109.714 255.292 88.1882 332.67 81.9555 352.056C76.3061 369.629 39.2827 407.909 32.7176 415.657C32.0395 416.46 30.1142 417.267 30.1142 417.267C26.3378 418.18 22.3904 416.69 20.1319 413.496C20.1319 413.496 18.9427 410.815 19.2216 409.451L21.2766 399.398C29.0817 367.505 44.0085 351.72 50.3335 318.422C59.8794 268.168 67.0154 256.821 68.6099 253.002C73.55 241.176 92.2149 250.449 92.2149 250.449Z" fill="#074024"/>
<path d="M128.052 251.881C129.964 270.024 128.833 301.335 127.076 315.478C122.239 354.41 90.1124 409.18 84.1889 420.304C83.4305 421.726 82.0325 422.694 80.443 422.874C75.8895 423.396 74.2006 422.26 71.8713 421.066C70.1992 420.206 69.2233 418.451 69.1835 416.555C68.3842 378.418 76.495 345.757 84.9078 324.952C88.1525 316.927 91.7036 271.275 91.2633 254.82L128.052 251.881Z" fill="#074024"/>
<path d="M70.1076 378.683C70.0573 378.683 70.0068 378.678 69.9557 378.668C69.5067 378.585 69.2103 378.154 69.2939 377.703C73.0988 357.163 76.2957 344.427 79.9835 335.117C85.1126 322.163 87.8081 308.682 87.9956 295.044L88.0887 288.258C88.095 287.799 88.4862 287.446 88.927 287.441C89.3838 287.446 89.7487 287.822 89.7425 288.281L89.6494 295.066C89.4591 308.905 86.7243 322.587 81.5209 335.726C77.8747 344.934 74.7043 357.577 70.9196 378.006C70.8458 378.405 70.4984 378.683 70.1076 378.683Z" fill="white"/>
<path d="M40.2164 266.886C39.9395 267.674 40.6354 269.221 40.5365 269.865C40.1763 272.212 36.6906 275.51 34.1269 277.651C32.0882 279.356 30.8854 281.891 30.8777 284.565C30.8757 285.194 30.907 285.881 30.9445 286.621C31.0296 288.313 30.4882 289.214 29.7566 289.67C28.3193 290.565 26.4495 289.519 26.2675 287.822C25.8695 284.113 25.212 276.425 26.249 273.717C26.9308 271.934 29.1283 269.602 31.1866 267.691C33.2098 265.813 34.3294 263.15 34.3176 260.374C34.2766 250.77 39.5939 222.736 45.8353 203.059L61.4424 211.745C61.4424 211.745 50.4657 237.746 40.2164 266.886Z" fill="#F8BD7F"/>
<path d="M46.3193 204.275C40.0553 224.378 35.1053 251.192 35.1443 260.369C35.1573 263.394 33.9196 266.285 31.7484 268.301C29.1702 270.693 27.5355 272.669 27.0209 274.013C26.3345 275.808 26.36 280.936 27.0894 287.734C27.1495 288.291 27.4862 288.77 27.9905 289.018C28.4338 289.234 28.9184 289.216 29.3197 288.966C29.9081 288.6 30.1767 287.825 30.1184 286.661C30.0814 285.929 30.0486 285.217 30.0506 284.562C30.0591 281.644 31.3519 278.893 33.5974 277.017C37.2461 273.965 39.4776 271.315 39.7194 269.74C39.7325 269.605 39.6306 269.166 39.5632 268.875C39.3913 268.133 39.1965 267.293 39.4366 266.611C48.6607 240.384 58.5916 216.422 60.3931 212.109L46.3193 204.275ZM28.6186 290.824C28.1602 290.824 27.6982 290.718 27.2654 290.508C26.2467 290.009 25.5661 289.038 25.4452 287.91C24.9941 283.707 24.3984 276.237 25.4767 273.419C26.09 271.816 27.8218 269.685 30.6245 267.085C32.4568 265.385 33.5016 262.94 33.4903 260.377C33.4502 250.931 38.5961 223.145 45.047 202.808C45.1221 202.57 45.2995 202.38 45.5298 202.287C45.7603 202.197 46.0199 202.214 46.2367 202.335L61.8441 211.021C62.2135 211.229 62.3687 211.68 62.204 212.069C62.0944 212.33 51.1192 238.381 40.9962 267.162C40.9166 267.388 41.0778 268.085 41.1745 268.499C41.3064 269.068 41.4203 269.56 41.3539 269.991C41.0385 272.047 38.7853 274.838 34.6567 278.288C32.7877 279.851 31.7114 282.14 31.7044 284.567C31.7026 285.182 31.7346 285.869 31.7699 286.578C31.8838 288.833 30.9752 289.886 30.193 290.372C29.7124 290.673 29.168 290.824 28.6186 290.824Z" fill="#074024"/>
<path d="M136.29 181.191L157.785 205.935C159.31 207.688 161.95 207.911 163.741 206.432C169.893 201.349 182.791 190.629 183.677 189.333C184.846 187.623 190.555 178.866 193.739 176.06C196.73 173.422 199.153 170.443 200.56 168.575C201.406 167.447 202.528 167.214 203.319 167.715C204.012 168.154 204.252 168.954 203.016 170.646C201.584 172.602 200.202 174.596 198.996 176.276C198.615 176.805 198.14 177.254 198.73 177.018C200.107 176.471 201.769 176.068 202.59 176.85C204.135 178.322 203.386 185.378 199.271 189.425C195.156 193.473 192.245 191.539 190.691 193.613C189.136 195.687 174.336 224.89 168.874 228.145C156.364 235.6 132.978 212.172 132.978 212.172L136.29 181.191Z" fill="#F8BD7F"/>
<path d="M133.843 211.86C136.504 214.438 157.348 234.052 168.451 227.432C172.346 225.113 181.997 207.535 186.636 199.089C188.586 195.539 189.622 193.661 190.03 193.116C190.883 191.976 192.032 191.772 193.244 191.559C194.773 191.291 196.505 190.985 198.693 188.834C201.344 186.228 202.528 182.194 202.508 179.548C202.498 178.332 202.24 177.657 202.022 177.452C201.717 177.161 200.773 177.096 199.036 177.788C198.35 178.059 197.982 177.815 197.794 177.562C197.379 177 197.799 176.466 198.08 176.113C198.157 176.015 198.242 175.905 198.325 175.792C198.768 175.175 199.234 174.513 199.719 173.828C200.555 172.65 201.441 171.396 202.347 170.157C203.086 169.147 203.078 168.725 203.058 168.62C203.051 168.585 203.038 168.517 202.876 168.415C202.405 168.116 201.739 168.382 201.219 169.074C199.692 171.103 197.249 174.072 194.285 176.682C191.544 179.099 186.738 186.261 184.929 188.959C184.686 189.318 184.493 189.603 184.36 189.799C183.484 191.08 172.951 199.899 164.267 207.069C162.116 208.846 158.995 208.586 157.162 206.477L136.91 183.167L133.843 211.86ZM163.192 230.439C150.217 230.439 133.227 213.593 132.393 212.758L132.114 212.477L135.669 179.215L158.409 205.391C159.65 206.818 161.76 206.993 163.215 205.792C177.106 194.32 182.541 189.526 182.996 188.864C183.126 188.671 183.317 188.387 183.554 188.034C185.572 185.03 190.29 177.996 193.194 175.438C196.05 172.918 198.418 170.044 199.899 168.076C200.951 166.677 202.538 166.243 203.759 167.013C204.395 167.417 204.613 167.941 204.683 168.309C204.833 169.099 204.515 169.997 203.682 171.135C202.78 172.366 201.899 173.613 201.068 174.789C200.861 175.082 200.655 175.373 200.453 175.656C201.639 175.468 202.548 175.664 203.161 176.251C203.972 177.023 204.152 178.462 204.16 179.536C204.185 182.617 202.863 187.056 199.849 190.017C197.296 192.527 195.121 192.911 193.532 193.192C192.373 193.395 191.794 193.52 191.351 194.112C190.996 194.586 189.712 196.925 188.085 199.887C181.066 212.668 173.247 226.502 169.297 228.857C167.439 229.963 165.372 230.439 163.192 230.439Z" fill="#074024"/>
<path d="M73.9411 164.242C90.4083 158.939 118.583 161.612 127.13 167.941C138.232 176.165 148.719 189.466 152.833 194.97C153.976 196.502 154.153 198.553 153.293 200.263C149.597 207.618 141.385 225.783 136.717 222.36C132.07 218.949 126.166 212.528 126.5 215.89C127.385 224.815 128.902 254.624 128.902 254.624C128.902 254.624 124.014 256.312 123.802 260.319L123.302 271.174C123.18 272.438 121.838 273.18 120.722 272.599C111.739 267.917 76.1746 263.433 62.9131 256.162C61.3244 255.289 60.4641 253.496 60.7732 251.698C62.3291 242.638 71.3224 223.503 67.6844 211.986C67.3092 210.797 64.4737 215.715 61.0453 218.641C60.4946 219.112 59.6974 219.137 59.1314 218.686L43.4387 206.153C42.049 205.043 41.5481 203.144 42.2104 201.484C45.4689 193.317 56.1695 169.964 73.9411 164.242Z" fill="#92AAFF"/>
<path d="M93.113 162.873L93.3035 144.455L108.479 151.491L108.636 162.314C108.632 165.218 106.234 166.925 106.234 166.925C103.27 169.28 98.9895 169.029 95.8068 166.981L95.0699 166.507C93.8372 165.714 93.098 164.343 93.113 162.873Z" fill="#F8BD7F"/>
<path d="M93.9402 162.883C93.9279 164.072 94.5174 165.167 95.5169 165.809L96.2543 166.283C99.3308 168.264 103.223 168.259 105.72 166.276C105.773 166.236 107.806 164.736 107.809 162.314L107.661 152.023L94.1177 145.746L93.9402 162.883ZM101.211 169.448C99.2432 169.448 97.1974 168.861 95.3604 167.677L94.6235 167.203C93.1422 166.251 92.2684 164.628 92.2864 162.865L92.4769 144.447C92.4799 144.167 92.6251 143.906 92.8621 143.755C93.0994 143.605 93.396 143.585 93.6513 143.703L108.827 150.739C109.116 150.872 109.302 151.16 109.307 151.479L109.463 162.304C109.459 165.606 106.825 167.519 106.713 167.6C105.166 168.828 103.229 169.448 101.211 169.448Z" fill="#074024"/>
<path d="M113.736 117.639C109.751 117.557 113.27 122.005 98.8972 118.116C93.0047 116.523 96.1886 123.331 94.6522 122.948C88.9775 121.536 86.9921 123.482 85.7258 124.503C84.2622 125.681 82.8675 128.422 83.2995 130.899C83.87 134.172 88.2659 135.012 90.9302 141.872C92.801 146.689 92.4933 149.671 94.4818 150.31C96.4925 150.957 97.8614 148.252 100.111 148.793C103.022 149.493 102.634 154.488 105.514 156.446C107.33 157.683 111.468 158.136 117.949 154.699C118.999 154.139 119.504 152.911 119.147 151.775C118.688 150.32 118.099 148.485 117.389 146.777C114.006 138.648 110.994 136.89 111.983 134.716C113.5 131.386 119.779 133.036 120.71 130.31C121.676 127.479 119.193 117.755 113.736 117.639Z" fill="#074024"/>
<path d="M101.425 137.331C101.998 138.309 102.502 139.327 102.935 140.378C103.746 142.341 105.164 145.704 106.101 147.527C107.263 149.788 113.92 147.376 115.984 146.564C116.317 146.433 116.468 146.047 116.316 145.724L115.516 143.763L117.15 143.284C117.343 143.196 117.521 143.068 117.645 142.898C117.955 142.466 117.937 141.912 117.645 141.513C116.128 139.447 113.44 136.049 112.017 131.782C111.872 131.345 111.487 131.034 111.031 130.989C109.464 130.836 105.76 130.826 102.249 133.404C101.012 134.314 100.649 136.004 101.425 137.331Z" fill="#F8BD7F"/>
<path d="M115.56 146.057C115.562 146.062 115.565 146.07 115.568 146.075L115.56 146.057ZM102.138 136.912C102.727 137.918 103.252 138.976 103.7 140.062C104.472 141.932 105.906 145.34 106.836 147.148C107.283 148.018 110.392 147.85 115.484 145.869L114.404 143.224L116.853 142.506C116.908 142.476 116.952 142.444 116.975 142.411C117.086 142.258 117.046 142.098 116.979 142.005L116.553 141.428C114.967 139.292 112.572 136.059 111.233 132.045C111.191 131.917 111.08 131.827 110.951 131.814C109.585 131.679 106.054 131.636 102.738 134.074C101.836 134.736 101.578 135.957 102.138 136.912ZM108.453 149.297C107.012 149.297 105.881 148.908 105.366 147.905C104.408 146.045 102.953 142.587 102.171 140.693C101.753 139.68 101.262 138.69 100.711 137.75C99.7212 136.057 100.172 133.903 101.76 132.737C105.536 129.964 109.557 130.016 111.111 130.164C111.889 130.242 112.553 130.774 112.802 131.518C114.057 135.285 116.358 138.386 117.88 140.44L118.311 141.024C118.826 141.724 118.827 142.672 118.315 143.382C118.115 143.657 117.829 143.886 117.489 144.039L117.382 144.079L116.628 144.299L117.082 145.41C117.234 145.731 117.247 146.15 117.1 146.524C116.954 146.892 116.657 147.188 116.287 147.333C113.696 148.354 110.698 149.297 108.453 149.297Z" fill="#074024"/>
<path d="M100.826 144.929C96.8135 146.737 95.0698 142.996 95.7835 140.613C96.0836 139.613 97.4102 139.397 98.0395 140.23L101.022 144.182C101.214 144.437 101.115 144.798 100.826 144.929Z" fill="#F8BD7F"/>
</svg>
